<svg width="32" height="32" viewBox="0 0 32 32" fill="none" xmlns="http://www.w3.org/2000/svg">
<g clip-path="url(#clip0_191_113)">
<rect width="31.3787" height="4.48267" transform="matrix(0.70389 -0.710309 0.70389 0.710309 0.289185 25.6318)" fill="#1CACDA"/>
<rect width="31.6028" height="4.48267" transform="matrix(0.70389 -0.710309 0.70389 0.710309 6.59973 25.6318)" fill="#7ADFFF"/>
<path d="M24.2712 10.0585V8.09569V7.78035L23.9642 7.85228C23.3407 7.99832 22.6548 8.11363 21.9059 8.19773C21.1772 8.26063 20.3861 8.29221 19.5326 8.29221C18.9264 8.29221 18.2991 8.26077 17.6507 8.1977L17.3765 8.17103V8.44653V9.11632V9.36632H17.6265C18.3361 9.36632 18.7416 9.58211 18.9465 9.94174L18.9462 9.94192L18.9534 9.95316C19.2009 10.3384 19.3441 10.9809 19.3441 11.9231V21.97C19.3441 22.8549 19.1875 23.3711 18.953 23.6145L18.9529 23.6144L18.9471 23.6208C18.7313 23.8606 18.3187 24.0164 17.6265 24.0164H17.3765V24.2664V24.9362V25.1989L17.6389 25.1859C18.0662 25.1648 18.6991 25.1436 19.539 25.1223L19.539 25.1224L19.5453 25.1221C20.3815 25.0798 21.2074 25.0586 22.0229 25.0586C23.0031 25.0586 23.9419 25.0798 24.8395 25.1221L24.8395 25.1222L24.8454 25.1224C25.7467 25.1436 26.4312 25.1648 26.8998 25.186L27.1611 25.1977V24.9362V24.2664V24.0164H26.9111C25.974 24.0164 25.3091 23.8397 24.8785 23.5243C24.503 23.235 24.2712 22.6465 24.2712 21.651V13.1989C24.2712 12.8021 24.3381 12.392 24.4744 11.9677L24.4754 11.9645C24.6127 11.5169 24.7981 11.1127 25.0309 10.7505L25.0309 10.7506L25.0341 10.7454C25.2646 10.3667 25.5402 10.0624 25.8598 9.82834L25.8599 9.82849L25.8675 9.82249C26.1869 9.56912 26.517 9.4191 26.8593 9.36303L26.8831 9.35913L26.9057 9.35075C26.9438 9.33664 26.9817 9.32459 27.0196 9.31458C26.8218 9.5115 26.6443 9.7292 26.4872 9.96742L26.4856 9.96991C26.2068 10.4037 26.077 10.9435 26.077 11.5722C26.077 12.2464 26.2923 12.8136 26.7359 13.2496L26.7356 13.2499L26.7457 13.2588C27.214 13.6718 27.8432 13.8635 28.602 13.8635C29.3829 13.8635 30.0281 13.594 30.511 13.0454M24.2712 10.0585L30.511 13.0454M24.2712 10.0585C24.4343 9.80484 24.6162 9.56342 24.817 9.3343C25.2471 8.84347 25.7441 8.46131 26.3076 8.19087C26.8784 7.89557 27.5116 7.75 28.2023 7.75C28.8937 7.75 29.4812 7.90671 29.9443 8.24167M24.2712 10.0585L30.9218 9.43104M30.511 13.0454C30.511 13.0454 30.511 13.0454 30.511 13.0455L30.3239 12.8801L30.5113 13.0451C30.5112 13.0452 30.5111 13.0453 30.511 13.0454ZM30.9218 9.43104C30.7185 8.94131 30.3908 8.54369 29.9443 8.24167M30.9218 9.43104C30.9224 9.43253 30.923 9.43402 30.9236 9.43551L30.6926 9.53096M30.9218 9.43104C30.9211 9.42959 30.9204 9.42813 30.9198 9.42667L30.6926 9.53096M29.9443 8.24167C29.9432 8.24086 29.942 8.24006 29.9408 8.23925L29.801 8.44653M29.9443 8.24167C29.9455 8.24252 29.9467 8.24338 29.9479 8.24424L29.801 8.44653M29.801 8.44653C30.2109 8.72295 30.5081 9.08443 30.6926 9.53096M29.801 8.44653L27.421 9.28509C27.1428 9.52057 26.9011 9.7939 26.6959 10.1051C26.4499 10.4878 26.327 10.9769 26.327 11.5722C26.327 12.1889 26.5217 12.6886 26.9111 13.0713C27.321 13.4328 27.8846 13.6135 28.602 13.6135C29.3194 13.6135 29.8932 13.369 30.3236 12.8799C30.7745 12.3696 31 11.7211 31 10.9343C31 10.4453 30.8975 9.97749 30.6926 9.53096M17.1137 8.44653V8.17578L16.8438 8.19732C16.5813 8.21827 16.2257 8.23939 15.7759 8.2606C15.3285 8.28169 14.9021 8.29221 14.4964 8.29221H14.4949H14.4933H14.4918H14.4902H14.4886H14.4871H14.4855H14.4839H14.4824H14.4808H14.4792H14.4776H14.4761H14.4745H14.4729H14.4713H14.4698H14.4682H14.4666H14.465H14.4635H14.4619H14.4603H14.4587H14.4571H14.4555H14.454H14.4524H14.4508H14.4492H14.4476H14.446H14.4444H14.4428H14.4412H14.4396H14.438H14.4364H14.4348H14.4332H14.4316H14.43H14.4284H14.4268H14.4252H14.4236H14.422H14.4204H14.4188H14.4172H14.4156H14.414H14.4124H14.4108H14.4092H14.4075H14.4059H14.4043H14.4027H14.4011H14.3995H14.3978H14.3962H14.3946H14.393H14.3914H14.3897H14.3881H14.3865H14.3849H14.3832H14.3816H14.38H14.3783H14.3767H14.3751H14.3735H14.3718H14.3702H14.3685H14.3669H14.3653H14.3636H14.362H14.3604H14.3587H14.3571H14.3554H14.3538H14.3521H14.3505H14.3488H14.3472H14.3455H14.3439H14.3422H14.3406H14.3389H14.3373H14.3356H14.334H14.3323H14.3307H14.329H14.3273H14.3257H14.324H14.3224H14.3207H14.319H14.3174H14.3157H14.314H14.3124H14.3107H14.309H14.3074H14.3057H14.304H14.3023H14.3007H14.299H14.2973H14.2956H14.294H14.2923H14.2906H14.2889H14.2872H14.2856H14.2839H14.2822H14.2805H14.2788H14.2771H14.2754H14.2738H14.2721H14.2704H14.2687H14.267H14.2653H14.2636H14.2619H14.2602H14.2585H14.2568H14.2551H14.2534H14.2517H14.25H14.2483H14.2466H14.2449H14.2432H14.2415H14.2398H14.2381H14.2364H14.2346H14.2329H14.2312H14.2295H14.2278H14.2261H14.2244H14.2226H14.2209H14.2192H14.2175H14.2158H14.214H14.2123H14.2106H14.2089H14.2071H14.2054H14.2037H14.202H14.2002H14.1985H14.1968H14.195H14.1933H14.1916H14.1898H14.1881H14.1864H14.1846H14.1829H14.1811H14.1794H14.1777H14.1759H14.1742H14.1724H14.1707H14.1689H14.1672H14.1654H14.1637H14.1619H14.1602H14.1584H14.1567H14.1549H14.1532H14.1514H14.1497H14.1479H14.1461H14.1444H14.1426H14.1409H14.1391H14.1373H14.1356H14.1338H14.132H14.1303H14.1285H14.1267H14.125H14.1232H14.1214H14.1197H14.1179H14.1161H14.1143H14.1126H14.1108H14.109H14.1072H14.1054H14.1037H14.1019H14.1001H14.0983H14.0965H14.0947H14.0929H14.0912H14.0894H14.0876H14.0858H14.084H14.0822H14.0804H14.0786H14.0768H14.075H14.0732H14.0714H14.0696H14.0678H14.066H14.0642H14.0624H14.0606H14.0588H14.057H14.0552H14.0534H14.0516H14.0498H14.048H14.0462H14.0444H14.0425H14.0407H14.0389H14.0371H14.0353H14.0335H14.0316H14.0298H14.028H14.0262H14.0244H14.0225H14.0207H14.0189H14.0171H14.0152H14.0134H14.0116H14.0097H14.0079H14.0061H14.0042H14.0024H14.0006H13.9987H13.9969H13.9951H13.9932H13.9914H13.9895H13.9877H13.9859H13.984H13.9822H13.9803H13.9785H13.9766H13.9748H13.9729H13.9711H13.9692H13.9674H13.9655H13.9637H13.9618H13.96H13.9581H13.9563H13.9544H13.9525H13.9507H13.9488H13.947H13.9451H13.9432H13.9414H13.9395H13.9376H13.9358H13.9339H13.932H13.9302H13.9283H13.9264H13.9245H13.9227H13.9208H13.9189H13.917H13.9152H13.9133H13.9114H13.9095H13.9076H13.9058H13.9039H13.902H13.9001H13.8982H13.8963H13.8944H13.8926H13.8907H13.8888H13.8869H13.885H13.8831H13.8812H13.8793H13.8774H13.8755H13.8736H13.8717H13.8698H13.8679H13.866H13.8641H13.8622H13.8603H13.8584H13.8565H13.8546H13.8527H13.8508H13.8489H13.8469H13.845H13.8431H13.8412H13.8393H13.8374H13.8355H13.8335H13.8316H13.8297H13.8278H13.8258H13.8239H13.822H13.8201H13.8182H13.8162H13.8143H13.8124H13.8104H13.8085H13.8066H13.8046H13.8027H13.8008H13.7988H13.7969H13.795H13.793H13.7911H13.7892H13.7872H13.7853H13.7833H13.7814H13.7794H13.7775H13.7755H13.7736H13.7717H13.7697H13.7678H13.7658H13.7639H13.7619H13.7599H13.758H13.756H13.7541H13.7521H13.7502H13.7482H13.7462H13.7443H13.7423H13.7404H13.7384H13.7364H13.7345H13.7325H13.7305H13.7286H13.7266H13.7246H13.7226H13.7207H13.7187H13.7167H13.7147H13.7128H13.7108H13.7088H13.7068H13.7049H13.7029H13.7009H13.6989H13.6969H13.6949H13.693H13.691H13.689H13.687H13.685H13.683H13.681H13.679H13.677H13.675H13.673H13.6711H13.6691H13.6671H13.6651H13.6631H13.6611H13.6591H13.6571H13.655H13.653H13.651H13.649H13.647H13.645H13.643H13.641H13.639H13.637H13.635H13.6329H13.6309H13.6289H13.6269H13.6249H13.6229H13.6208H13.6188H13.6168H13.6148H13.6128H13.6107H13.6087H13.6067H13.6047H13.6026H13.6006H13.5986H13.5965H13.5945H13.5925H13.5904H13.5884H13.5864H13.5843H13.5823H13.5822C13.2529 8.27106 12.9043 8.26046 12.5365 8.26032C12.1915 8.23925 11.8668 8.21818 11.5623 8.19712L11.2951 8.17864V8.44653V9.08443V9.31874L11.5289 9.3339C12.1377 9.37338 12.5994 9.56809 12.9377 9.90063L12.9377 9.9007L12.9429 9.90555C13.2709 10.21 13.4818 10.6942 13.5402 11.4014L13.5402 11.402C13.5975 12.075 13.4456 12.9722 13.061 14.1064C13.0609 14.1067 13.0608 14.107 13.0607 14.1073L11.0923 19.7683L7.81754 10.7627C7.74001 10.4794 7.6994 10.2493 7.69048 10.0688C7.68129 9.88292 7.70691 9.77198 7.73893 9.71109C7.8144 9.56754 7.95586 9.46328 8.22527 9.42815C8.56146 9.38717 8.94022 9.36632 9.36226 9.36632H9.61226V9.11632V8.44653V8.17864L9.34501 8.19712C8.7321 8.23952 8.06802 8.28192 7.35272 8.32433C6.65946 8.34545 5.9971 8.356 5.36559 8.356C4.52886 8.356 3.75383 8.34544 3.0404 8.32433C2.34522 8.2819 1.67048 8.23948 1.01618 8.19705L0.75 8.17979V8.44653V9.11632V9.36632H1C1.15843 9.36632 1.37764 9.43536 1.66722 9.61562L1.67553 9.62079L1.68422 9.6253C1.79352 9.68199 1.92875 9.80904 2.08222 10.0429C2.2334 10.2732 2.39002 10.5883 2.55036 10.9936C2.55045 10.9939 2.55055 10.9941 2.55065 10.9944L8.02244 25.0905L8.08876 25.2613L8.27167 25.2495C8.59423 25.2286 8.91676 25.2181 9.23929 25.2181C9.58264 25.2181 9.91542 25.2286 10.2377 25.2495L10.4287 25.2619L10.4905 25.0806L14.9783 11.9101C14.9784 11.9097 14.9786 11.9094 14.9787 11.909C15.3037 10.982 15.6284 10.3625 15.9418 10.0182L15.9419 10.0183L15.9463 10.0132C16.2725 9.63493 16.6013 9.41521 16.9295 9.3256L17.1137 9.27532V9.08443V8.44653ZM27.3393 9.02842C27.1658 9.02275 26.9923 9.05205 26.8189 9.11632C26.4295 9.18011 26.0605 9.35022 25.7121 9.62664C25.3637 9.8818 25.0665 10.2114 24.8205 10.6154C24.5746 10.9981 24.3799 11.4234 24.2364 11.8912C24.0929 12.3377 24.0212 12.7736 24.0212 13.1989V21.651C24.0212 22.6717 24.2569 23.3627 24.7283 23.7242L27.3393 9.02842Z" fill="white" stroke="black" stroke-width="0.5"/>
</g>
<defs>
<clipPath id="clip0_191_113">
<rect width="32" height="32" fill="white"/>
</clipPath>
</defs>
</svg>
