<svg width="32" height="32" viewBox="0 0 32 32" fill="none" xmlns="http://www.w3.org/2000/svg">
<g clip-path="url(#clip0_58_40)">
<path d="M0 0V32L30.5 1.5L32 0H0Z" fill="#1CACDA"/>
<path d="M32 32L32 0L1.5 30.5L0 32L32 32Z" fill="#1CACDA"/>
<path fill-rule="evenodd" clip-rule="evenodd" d="M23.0066 12.1158L20.6323 12.4C20.3732 12.4 20.1862 12.3526 20.0711 12.2579C20.474 11.5 20.6754 10.7421 20.6754 9.98421C20.6754 9.22632 20.4452 8.54737 19.9847 7.94737C19.553 7.31579 19.0638 7 18.517 7C17.9989 7 17.596 7.28421 17.3082 7.85263C17.0204 8.42105 16.8765 9.08421 16.8765 9.84211C16.8765 10.6 17.0492 11.2789 17.3946 11.8789C17.6102 12.2596 17.8793 12.5782 18.2018 12.8349C18.082 12.9509 17.948 13.0902 17.8 13.2526C16.7639 14.3895 15.6847 14.9579 14.5623 14.9579C14.073 14.9579 13.6125 14.8632 13.1808 14.6737C13.3247 13.6316 13.3967 12.5895 13.3967 11.5474C13.3967 10.5053 13.2384 9.57368 12.9218 8.75263C12.6053 7.9 12.1448 7.47369 11.5404 7.47369C10.5331 7.47369 9.75608 7.9 9.20927 8.75263C8.69124 9.60526 8.43222 10.6 8.43222 11.7368C8.43222 12.8737 8.70563 13.8842 9.25244 14.7684C9.79925 15.6211 10.5907 16.2211 11.6267 16.5684C11.2526 18.2737 10.677 19.7263 9.89998 20.9263C9.12293 22.0947 8.21638 22.6789 7.18031 22.6789C6.4896 22.6789 5.97157 21.8895 5.62622 20.3105C5.30964 18.7 5.15136 16.7737 5.15136 14.5316C5.89962 12.6368 6.27376 10.8842 6.27376 9.27368C6.27376 8.70526 6.05791 8.42105 5.62622 8.42105C5.33842 8.42105 4.82039 8.67368 4.07213 9.17895C3.35264 9.68421 2.89217 10.1105 2.69071 10.4579C2.51803 10.8053 2.35974 11.7526 2.21585 13.3C2.07195 14.8474 2 16.1105 2 17.0895C2 19.9632 2.53242 22.1421 3.59726 23.6263C4.23041 24.5421 5.03624 25 6.01474 25C7.68396 25 9.09415 24.2105 10.2453 22.6316C11.3965 21.0526 12.2455 19.1105 12.7923 16.8053C15.1235 16.8053 17.0517 15.8737 18.577 14.0105C18.7907 13.758 18.9434 13.526 19.0351 13.3147C19.5627 13.5259 20.1815 13.6316 20.8913 13.6316C20.402 15.4316 20.1574 17.5947 20.1574 20.1211C20.1574 22.6474 20.2581 24.0211 20.4596 24.2421C21.0352 24.7474 21.8842 25 23.0066 25C24.5607 25 26.4745 22.3474 28.7481 17.0421C29.5827 15.1158 30 13.7105 30 12.8263C30 12.5737 29.8993 12.4474 29.6978 12.4474C29.5251 12.4474 29.0071 13.4737 28.1437 15.5263C27.3091 17.5789 26.4601 19.2684 25.5967 20.5947C24.7333 21.8895 24.057 22.5526 23.5678 22.5842C23.3951 22.5842 23.3088 22.0632 23.3088 21.0211C23.3088 19.9474 23.3951 18.4947 23.5678 16.6632C23.7692 14.8316 23.87 13.7579 23.87 13.4421C23.87 13.1263 23.7836 12.8263 23.6109 12.5421C23.4383 12.2579 23.2368 12.1158 23.0066 12.1158ZM19.0351 13.3147C19.1038 13.1561 19.1382 13.0091 19.1382 12.8737C19.1382 12.5579 19.0375 12.4 18.836 12.4C18.7127 12.4 18.5013 12.545 18.2018 12.8349C18.4484 13.031 18.7261 13.1909 19.0351 13.3147ZM10.7634 10.8368C10.7634 9.79474 10.8785 9.27368 11.1087 9.27368C11.7994 9.27368 12.1448 10.4105 12.1448 12.6842C12.1448 13.0632 12.116 13.4421 12.0584 13.8211C11.1951 12.8737 10.7634 11.8789 10.7634 10.8368Z" fill="#F5F7FA"/>
<path d="M19.1382 12.8737C19.1382 12.5579 19.0375 12.4 18.836 12.4C18.7127 12.4 18.5013 12.545 18.2018 12.8349C18.4484 13.031 18.7261 13.1909 19.0351 13.3147C19.1038 13.1561 19.1382 13.0091 19.1382 12.8737Z" fill="#F5F7FA"/>
</g>
<defs>
<clipPath id="clip0_58_40">
<rect width="32" height="32" fill="white"/>
</clipPath>
</defs>
</svg>
