<svg width="370" height="36" viewBox="0 0 370 36" fill="none" xmlns="http://www.w3.org/2000/svg">
<path d="M28.432 1.73598L14.656 35H5.05601L0.208008 1.73598H8.32001L10.72 28.856L20.416 1.73598H28.432Z" fill="#F5F7FA"/>
<path d="M39.3063 1.73598L34.6503 35H26.9223L31.5783 1.73598H39.3063Z" fill="#F5F7FA"/>
<path d="M66.7641 35H56.9721L50.8281 8.26398C50.8921 9.99198 50.9241 11.32 50.9241 12.248C50.9241 15.64 50.6521 19.288 50.1081 23.192L48.4281 35H41.5641L46.2201 1.73598H55.9161L62.2041 28.472C62.1081 26.68 62.0601 25.016 62.0601 23.48C62.0601 20.664 62.2681 17.784 62.6841 14.84L64.5561 1.73598H71.4201L66.7641 35Z" fill="#F5F7FA"/>
<path d="M86.0744 1.73598L81.4184 35H73.6904L78.3464 1.73598H86.0744Z" fill="#F5F7FA"/>
<path d="M105.996 0.919983C110.188 0.919983 113.468 2.23198 115.836 4.85598L111.66 8.93598C110.764 8.19998 109.884 7.65598 109.02 7.30398C108.156 6.91998 107.18 6.72798 106.092 6.72798C103.916 6.72798 102.14 7.55998 100.764 9.22398C99.3883 10.856 98.3963 12.856 97.7883 15.224C97.2123 17.56 96.9243 19.848 96.9243 22.088C96.9243 24.68 97.4363 26.6 98.4603 27.848C99.4843 29.096 100.924 29.72 102.78 29.72C103.964 29.72 105.068 29.48 106.092 29C107.148 28.52 108.284 27.832 109.5 26.936L112.524 31.592C111.116 32.84 109.484 33.864 107.628 34.664C105.804 35.432 103.788 35.816 101.58 35.816C97.7083 35.816 94.6203 34.632 92.3163 32.264C90.0443 29.864 88.9083 26.472 88.9083 22.088C88.9083 18.76 89.5003 15.48 90.6843 12.248C91.8683 8.98398 93.7403 6.27998 96.3003 4.13598C98.8603 1.99198 102.092 0.919983 105.996 0.919983Z" fill="#F5F7FA"/>
<path d="M128.577 1.73598L123.921 35H116.193L120.849 1.73598H128.577Z" fill="#F5F7FA"/>
<path d="M157.475 24.008C157.155 26.312 156.387 28.36 155.171 30.152C153.987 31.912 152.371 33.304 150.323 34.328C148.275 35.32 145.875 35.816 143.123 35.816C139.379 35.816 136.547 34.936 134.627 33.176C132.707 31.416 131.747 29.016 131.747 25.976C131.747 25.272 131.795 24.568 131.891 23.864L135.011 1.73598H142.739L139.667 23.72C139.571 24.424 139.523 25.064 139.523 25.64C139.523 27.112 139.859 28.2 140.531 28.904C141.203 29.608 142.259 29.96 143.699 29.96C145.491 29.96 146.867 29.432 147.827 28.376C148.819 27.32 149.459 25.72 149.747 23.576L152.867 1.73598H160.595L157.475 24.008Z" fill="#F5F7FA"/>
<path d="M176.952 0.919983C181.496 0.919983 185.192 2.37598 188.04 5.28798L183.911 9.41598C181.991 7.59198 179.751 6.67998 177.191 6.67998C175.655 6.67998 174.423 7.01598 173.495 7.68798C172.599 8.32798 172.152 9.22398 172.152 10.376C172.152 11.336 172.535 12.104 173.303 12.68C174.071 13.256 175.543 13.912 177.719 14.648C180.567 15.576 182.696 16.776 184.104 18.248C185.543 19.72 186.264 21.672 186.264 24.104C186.264 26.088 185.767 27.976 184.775 29.768C183.815 31.528 182.264 32.984 180.12 34.136C178.008 35.256 175.319 35.816 172.055 35.816C169.367 35.816 167.015 35.384 164.999 34.52C163.015 33.624 161.336 32.44 159.96 30.968L164.424 26.552C166.536 28.728 169.143 29.816 172.247 29.816C174.071 29.816 175.496 29.416 176.52 28.616C177.576 27.816 178.104 26.712 178.104 25.304C178.104 24.216 177.72 23.336 176.952 22.664C176.216 21.992 174.856 21.304 172.872 20.6C169.736 19.544 167.48 18.28 166.104 16.808C164.728 15.336 164.04 13.496 164.04 11.288C164.04 9.52798 164.52 7.86398 165.48 6.29598C166.44 4.69598 167.879 3.39998 169.799 2.40798C171.751 1.41598 174.136 0.919983 176.952 0.919983Z" fill="#F5F7FA"/>
<path d="M228.844 10.568C228.844 12.84 228.284 14.856 227.164 16.616C226.044 18.376 224.076 19.848 221.26 21.032L227.5 35H219.052L214.012 22.328L210.796 22.28L209.02 35H201.292L205.948 1.73598H216.652C220.62 1.73598 223.644 2.50398 225.724 4.03998C227.804 5.57598 228.844 7.75198 228.844 10.568ZM211.564 16.856H214.972C217.02 16.856 218.508 16.28 219.436 15.128C220.364 13.944 220.828 12.552 220.828 10.952C220.828 9.67198 220.412 8.74398 219.58 8.16798C218.78 7.55998 217.532 7.25598 215.836 7.25598H212.908L211.564 16.856Z" fill="#F5F7FA"/>
<path d="M248.448 35L247.776 27.848H238.128L235.488 35H227.424L241.968 1.73598H251.376L256.56 35H248.448ZM240.192 22.136H247.2L245.76 7.01598L240.192 22.136Z" fill="#F5F7FA"/>
<path d="M284.979 35H275.187L269.043 8.26398C269.107 9.99198 269.139 11.32 269.139 12.248C269.139 15.64 268.867 19.288 268.323 23.192L266.643 35H259.779L264.435 1.73598H274.131L280.419 28.472C280.323 26.68 280.275 25.016 280.275 23.48C280.275 20.664 280.483 17.784 280.899 14.84L282.771 1.73598H289.635L284.979 35Z" fill="#F5F7FA"/>
<path d="M310.625 0.919983C314.977 0.919983 318.481 2.32798 321.137 5.14398L316.817 9.03198C315.729 8.16798 314.721 7.55998 313.793 7.20798C312.865 6.82398 311.777 6.63198 310.529 6.63198C308.065 6.63198 306.081 7.47998 304.577 9.17598C303.073 10.84 302.001 12.936 301.361 15.464C300.721 17.96 300.401 20.552 300.401 23.24C300.401 25.672 300.849 27.416 301.745 28.472C302.641 29.528 304.001 30.056 305.825 30.056C307.393 30.056 308.945 29.688 310.481 28.952L311.537 21.416H307.313L307.361 15.848H319.841L317.585 32.312C315.793 33.432 313.825 34.296 311.681 34.904C309.569 35.512 307.457 35.816 305.345 35.816C301.089 35.816 297.873 34.696 295.697 32.456C293.521 30.184 292.433 26.888 292.433 22.568C292.433 18.984 293.057 15.544 294.305 12.248C295.585 8.95198 297.585 6.24798 300.305 4.13598C303.057 1.99198 306.497 0.919983 310.625 0.919983Z" fill="#F5F7FA"/>
<path d="M347.815 1.73598L346.183 7.35198H334.663L333.511 15.32H343.591L342.871 20.84H332.791L331.591 29.336H343.927L343.159 35H323.047L327.703 1.73598H347.815Z" fill="#F5F7FA"/>
<path d="M360.948 1.73598L357.203 28.76H369.923L368.292 35H348.564L353.219 1.73598H360.948Z" fill="#F5F7FA"/>
</svg>
